<svg xmlns="http://www.w3.org/2000/svg" viewBox="0 0 24 24" fill="currentColor">
  <path d="M12.01 1.583C8.68 1.583 6.13 3.993 6.13 6.786c0 1.637.78 2.733 1.22 3.265.16.195.19.414.09.62-.16.31-.53.114-.11-.114.11-.114.41-.02 1.13-.375.01-.007 1.13-.365 1.13-.365.09-.052.2-.084.29-.084.27 0 .47.182.47.45 0 .041-.01.085-.02.128-.14.248-.42.918-.11 1.039.29.053.49.257.49.556 0 .365.29.622.65.622.22 0 .46-.086.68-.247.22-.151.45-.268.73-.268.21 0 .36.086.46.247.51.782.98 1.157 1.33 1.296.11.064.17.172.17.301 0 .536-.44.976-.98.976H9.72v.086c0 .204-.16.365-.37.365s-.37-.161-.37-.365v-.086a1.71 1.71 0 0 1 1.72-1.706c.64 0 1.2.354 1.49.858.29-.504.84-.858 1.49-.858.94 0 1.72.772 1.72 1.706v.086c0 .204-.16.365-.37.365s-.37-.161-.37-.365v-.086h-1.14c-.54 0-.98-.44-.98-.976 0-.129.07-.237.17-.301.35-.139.82-.514 1.33-1.296.11-.161.26-.247.46-.247.28 0 .52.117.73.268.22.161.46.247.68.247.36 0 .65-.257.65-.622 0-.3-.2-.504-.49-.556-.69-.121-.97-.791-.11-.108l.11-.108.11-.11a1.29 1.29 0 0 1-.22-.214c.42 0 1.13.354 1.13.354s.03-.01.42.01c-.11-.225-.08-.438.09-.633.44-.532 1.22-1.628 1.22-3.265 0-2.793-2.55-5.203-5.88-5.203z"/>
</svg>
